<?xml version="1.0" encoding="utf-8"?>
<!-- Generator: Adobe Illustrator 27.5.0, SVG Export Plug-In . SVG Version: 6.00 Build 0)  -->
<svg version="1.1" xmlns="http://www.w3.org/2000/svg" xmlns:xlink="http://www.w3.org/1999/xlink" width="100" height="100" x="0px" y="0px"
	 viewBox="0 0 500 500" style="enable-background:new 0 0 500 500;" xml:space="preserve">
<g id="BACKGROUND">
	<rect style="fill:#04d9b5;" width="500" height="500"/>
</g>
<g id="OBJECTS">
	<g>
		<path style="fill:#04d9b5;" d="M445.827,302.532l-0.213-1.727c-0.071-0.572-0.338-0.918-0.533-1.129
			c-1.044-1.128-2.086-2.258-3.127-3.388c-2.384-2.588-4.85-5.264-7.312-7.865c-7.964-8.413-16.641-15.395-25.79-20.751
			c-1.505-0.881-3.056-1.666-4.609-2.332h0c-1.633-0.7-3.32-1.292-5.015-1.759c-3.433-0.945-7.124-1.656-11.929-2.3
			c3.912-1.633,7.573-3.538,11.071-5.776c1.987-1.271,4.598-2.958,7.177-4.743c1.444-0.999,3.112-2.18,4.628-3.543
			c3.309-2.976,6.552-6.037,9.86-9.173c0.944-0.895,1.826-1.859,2.679-2.791l0.645-0.703c0.297-0.322,0.553-0.732,0.738-1.186
			c0.019-0.048,0.035-0.097,0.054-0.145l1.653-1.625c0.119-0.117,0.216-0.21,0.299-0.289c0.174-0.167,0.294-0.283,0.404-0.409
			c4.305-4.931,8.025-10.808,11.371-17.967c1.883-4.028,3.143-8.208,4.273-12.145c1.421-4.951,2.311-10.178,2.648-15.536
			c0.471-7.495,0.412-15.45-0.191-25.794c-0.292-5.019-1.084-10.177-2.355-15.33c-1.381-5.605-4.642-9.545-9.691-11.71l-0.25-0.105
			c-0.19-0.079-0.38-0.159-0.57-0.239c-0.403-0.17-0.807-0.34-1.216-0.496l-2.45-0.934c-4.299-1.638-8.598-3.277-12.903-4.898
			c-1.41-0.531-2.847-1.042-4.237-1.536c-0.638-0.227-1.276-0.453-1.911-0.682l-0.779-0.28l-0.043,0.072
			c-0.138-0.06-0.267-0.118-0.379-0.169c-0.119-0.054-0.227-0.103-0.33-0.148c-0.158-0.068-0.307-0.125-0.458-0.172l-0.493-0.153
			c-2.336-0.723-4.752-1.471-7.138-2.184c-5.115-1.527-10.383-2.727-15.657-3.567c-4.412-0.703-8.636,0.118-12.553,2.44
			l-0.665,0.396c-0.778,0.465-1.583,0.946-2.384,1.374c-3.566,1.906-6.724,2.67-9.939,2.402c-1.068-0.089-2.149-0.136-3.194-0.181
			c-2.229-0.097-4.535-0.197-6.754-0.716l-0.283-0.066c0.069-0.334,0.118-0.658,0.142-0.967c0.038-0.486,0.034-0.961,0.03-1.421
			c-0.003-0.382-0.007-0.742,0.013-1.095c0.147-2.602-0.462-5.013-1.812-7.168c-0.45-0.719-0.896-1.442-1.343-2.164
			c-0.978-1.584-1.99-3.222-3.037-4.807c-1.291-1.955-3.088-4.465-5.547-6.548c-3.398-2.877-7.057-5.167-10.877-6.805
			c-4.031-1.729-8.332-2.772-12.785-3.102c-4.454-0.33-8.989-0.272-13.375-0.216l-2.157,0.026c-0.66,0.007-1.32,0.017-1.98,0.028
			c-3.214,0.051-6.538,0.104-9.764-0.29c-0.221-0.027-0.41-0.011-0.61,0.006c-0.082,0.007-0.177,0.015-0.289,0.021l-1.904,0.096
			l-0.23-0.162c-0.299-0.21-0.639-0.397-1.009-0.556c-0.291-0.125-0.599-0.231-0.917-0.317c-1.253-0.339-2.529-0.79-3.899-1.378
			c-2.011-0.863-3.975-1.918-5.658-2.84c-3.261-1.786-6.796-3.687-10.806-5.811c-1.671-0.885-3.439-1.725-5.404-2.568
			c-2.041-0.875-4.293-1.752-7.087-2.76c-3.608-1.301-6.878-2.438-10.365-3.171c-2.666-0.561-4.746-0.665-6.744-0.339
			c-2.336,0.382-4.58,1.416-7.061,3.255c-1.862,1.379-3.731,2.748-5.601,4.117c-3.672,2.688-7.468,5.467-11.142,8.289
			c-4.55,3.495-8.941,7.156-13.048,10.607c-2.597,2.182-5.01,4.388-7.172,6.556c-8.413,8.441-14.34,17.187-18.121,26.738
			c-1.263,3.19-2.533,6.655-3.266,10.37c-0.751,3.803-0.797,7.664-0.842,11.399l-0.011,0.866c-0.021,1.635,0.265,3.307,0.875,5.112
			c0.19,0.563,0.397,1.117,0.601,1.672l-0.304,0.045l-5.655,0.846c-0.619-2.321-1.399-4.585-2.155-6.783
			c-1.318-3.829-2.563-7.445-3.033-11.322l-0.086-0.709l-0.07-0.015c0.011-0.024,0.024-0.054,0.034-0.076
			c0.081-0.175,0.157-0.34,0.212-0.542c0.251-0.928,0.842-1.55,1.805-1.902c1.093-0.4,2.102-0.726,3.087-0.997
			c0.417-0.115,0.853-0.195,1.314-0.281c0.398-0.074,0.809-0.15,1.221-0.251c1.037-0.256,1.419-0.829,1.557-1.265
			c0.138-0.435,0.156-1.122-0.541-1.924c-0.543-0.626-1.171-1.094-1.865-1.392c-0.728-0.312-1.496-0.423-2.283-0.33
			c-1.407,0.166-3.091,0.477-4.697,1.284c0.12-0.308,0.199-0.659,0.201-1.065c0.002-0.541,0.012-1.083,0.023-1.624
			c0.022-1.113,0.044-2.264-0.011-3.409c-0.145-2.988-1.568-5.445-2.941-7.454l-0.488-0.714c0.176-0.35,0.311-0.689,0.395-1.019
			c0.311-1.222,0.584-2.467,0.848-3.671c0.157-0.716,0.314-1.432,0.48-2.147c1.404-6.061,1.545-12.353,0.42-18.701
			c-1.981-11.175-7.36-20.794-15.987-28.59c-0.747-0.675-1.503-1.339-2.26-2.003c-2.165-1.901-4.404-3.866-6.335-6.044
			c-0.303-0.342-0.601-0.588-0.91-0.753c-0.044-0.023-0.089-0.045-0.134-0.064c-0.252-0.108-0.497-0.146-0.676-0.173
			c-0.049-0.008-0.098-0.014-0.143-0.024l-0.808-0.178l-0.326,0.76c-0.018,0.042-0.035,0.075-0.049,0.102
			c-0.011,0.021-0.025,0.059-0.037,0.086c-0.721-0.597-1.436-1.178-2.195-1.705c-0.24-0.167-0.495-0.309-0.756-0.421
			c-0.35-0.15-0.697-0.241-1.031-0.268c-0.57-0.047-0.974,0.296-1.215,0.502c-0.05,0.043-0.099,0.09-0.152,0.123
			c-2.423,1.1-2.969,3.319-3.288,5.311c-0.007,0.042-0.003,0.078-0.008,0.119l-0.036-0.031l-0.656,0.601
			c-0.921,0.843-0.853,1.808-0.812,2.384l0.012,0.183c0.148,2.987-0.083,6.086-0.705,9.475c-0.451,2.454-0.904,4.908-1.372,7.359
			c-1.344,7.044-1.005,13.436,1.037,19.539c0.511,1.526,0.971,2.858,1.407,4.071c2.092,5.821,5.231,11.362,9.331,16.47
			c1.424,1.774,2.983,3.008,4.766,3.773c0.098,0.042,0.197,0.083,0.297,0.122c0.423,0.167,0.842,0.343,1.264,0.513l0.278,1.237
			l0.374,1.668c0.361,1.611,0.714,3.184,1.071,4.757c0.082,0.36,0.183,0.725,0.309,1.117c0.484,1.496,1.178,2.693,2.122,3.658
			c0.54,0.552,1.051,0.927,1.563,1.146c0.153,0.065,0.307,0.117,0.458,0.154c0.207,0.05,0.406,0.09,0.608,0.134
			c-2.237,0.998-4.765,2.308-6.91,4.423l-0.107,0.104c-0.41,0.394-1.369,1.317-0.696,2.593c0.209,0.397,0.508,0.68,0.889,0.844
			c0.577,0.247,1.155,0.132,1.577,0.048l0.193-0.037c1.594-0.278,3.187-0.558,4.78-0.839l1.55-0.273
			c1.139-0.2,2.096-0.252,2.998,0.036l0.543,0.636c1.218,1.426,1.76,3.1,2.252,4.834c0.448,1.581,0.928,3.177,1.392,4.721
			l0.369,1.228c0.334,1.116,0.673,2.23,1.027,3.393l0.147,0.484c-0.028,0.002-0.056,0.003-0.084,0.005
			c-1.234,0.056-2.469,0.11-3.704,0.163c-1.738,0.075-3.475,0.15-5.212,0.234l-2.619,0.123c-2.885,0.133-5.868,0.271-8.804,0.468
			c-1.868,0.125-3.759,0.292-5.589,0.453c-1.976,0.174-4.019,0.354-6.026,0.481c-4.96,0.314-9.33,1.914-12.989,4.756
			c-2.054,1.596-4.126,3.413-6.158,5.403c-4.46,4.368-8.138,9.39-11.234,13.754c-1.504,2.119-3.023,4.443-3.947,7.079
			c-0.858,2.446-1.488,4.453-1.983,6.315c-2.812,10.581-4.244,21.187-4.255,31.524c-0.003,3.25,0.09,7.094,0.81,10.968
			c0.197,1.059,0.414,2.119,0.639,3.177l-5.853-1.11l-3.268-0.619l0.354,0.344c-0.298,0.118-0.581,0.308-0.871,0.506
			c-0.105,0.072-0.208,0.147-0.31,0.223l-0.185,0.135c-2.426,1.719-5.174,3.219-8.811,2.562l-3.083-0.557l1.055,1.079l-0.125,0.149
			c-1.746,2.075-3.824,3.628-6.352,4.749l-6.072,2.692l4.636-0.552l-0.874,0.281l1.943,1.128c0.119,0.069,0.238,0.129,0.357,0.18
			c0.275,0.118,0.566,0.199,0.891,0.247c0.613,0.091,1.226,0.178,1.84,0.264c0.836,0.118,1.673,0.236,2.507,0.365
			c1.559,0.241,2.789,0.569,3.869,1.033c0.87,0.373,1.628,0.828,2.315,1.39c0.12,0.098,0.252,0.176,0.415,0.246
			c0.068,0.029,0.144,0.057,0.227,0.088c0.063,0.023,0.134,0.048,0.212,0.082l0.409,0.175c0.067,0.592,0.299,1.379,1.148,1.743
			c0.404,0.173,0.89,0.223,1.574,0.162c1.071-0.096,2.179-0.137,3.133-0.169c0.167-0.005,0.37,0.021,0.627,0.055
			c0.154,0.02,0.32,0.042,0.501,0.06l1.243,0.125c0.211,0.232,0.467,0.466,0.804,0.62c1.959,0.894,3.296,2.553,4.605,4.318
			c0.117,0.158,0.235,0.315,0.402,0.536l0.34,0.451l0.614,0.817l-0.022,0.211l0.305,0.165l0.646,0.858l0.051-0.515
			c0.773,0.316,1.527,0.371,2.257,0.42c0.577,0.039,1.121,0.075,1.652,0.243l0.818,0.258c0.004,0.02,0.009,0.04,0.014,0.06
			c0.543,2.474,1.454,4.652,2.785,6.659c2.789,4.205,5.627,7.873,8.679,11.214c0.094,0.103,0.188,0.207,0.282,0.312l-0.047,0.041
			l-0.548,0.482c-0.197-0.04-0.392-0.054-0.576-0.009c-0.481,0.117-0.953,0.257-1.409,0.391l-0.476,0.139l-0.758,0.219l0.022,0.47
			c-0.031-0.013-0.059-0.025-0.09-0.038c-0.258-0.107-0.526-0.219-0.81-0.341l-0.891-0.382l-0.409,0.879l-0.205,0.439l-0.428,0.919
			c-0.131,0.284-0.251,0.576-0.371,0.868c-0.234,0.57-0.454,1.109-0.755,1.546c-1.612,2.338-3.443,3.404-5.761,3.356
			c-0.568-0.012-1.122,0.052-1.688,0.125c-0.372,0.048-1.503,0.193-2.076,1.433l-0.125,0.27l-0.32,0.594
			c-0.171,0.318-0.331,0.622-0.485,0.917c-0.311,0.592-0.604,1.152-0.917,1.679c-1.599,2.698-3.586,4.409-6.075,5.229
			c-0.534,0.176-0.949,0.393-1.27,0.664c-0.518,0.436-0.771,0.922-0.754,1.442c0.005,0.158,0.044,0.31,0.098,0.457l-0.222,0.517
			c-0.208,0.485-0.396,0.962-0.579,1.428c-0.37,0.942-0.72,1.832-1.181,2.611c-1.371,2.315-2.789,3.935-5.256,4.314l-0.561,0.086
			l-0.218-0.299l-0.258,0.373l-0.584,0.09l0.268,0.368l-0.227,0.328c-0.073,0.106-0.137,0.192-0.191,0.265
			c-0.126,0.171-0.245,0.332-0.34,0.541c-0.178,0.393-0.338,0.795-0.473,1.193c-1.343,3.934-3.322,6.913-6.049,9.106
			c-0.754,0.606-1.553,1.199-2.325,1.773c-0.513,0.381-1.027,0.762-1.533,1.151c-0.814,0.625-1.633,1.282-2.434,1.954
			c-0.303,0.254-0.409,0.572-0.487,0.805c-0.019,0.059-0.04,0.124-0.07,0.193l-1.311,3.056l2.563-1.684l1.976,0.223
			c0.476,0.054,0.921,0.008,1.361-0.14c0.81-0.272,1.611-0.557,2.383-0.847c2.03-0.762,3.731-0.939,5.353-0.556
			c1.068,0.253,2.018-0.001,2.885-0.313c0.561-0.202,0.964-0.583,1.219-1.117l0.006,0.002l0.083,0.033
			c0.112,0.048,0.375,0.16,0.717,0.076l0.19-0.046c0.297-0.071,0.594-0.143,0.886-0.23c2.403-0.714,4.566-0.79,6.612-0.232
			c1.177,0.321,2.312,0.753,3.514,1.21c0.518,0.197,1.037,0.395,1.558,0.582c0.282,0.101,0.561,0.209,0.882,0.332l0.535,0.204
			l1.176,0.446l0.014-0.106c1.519,0.427,3.09,0.459,4.943,0.096c1.323-0.259,2.755-0.484,4.506-0.708
			c1.146-0.146,2.297-0.009,3.52,0.419c0.873,0.306,1.751,0.594,2.68,0.9l1.29,0.426l0.284,0.095l0,0.006l0.501,0.316
			c0.329,0.207,0.662,0.384,0.991,0.525c1.516,0.65,3.046,0.605,4.549-0.133c2.455-1.206,5.207-1.468,8.413-0.8l0.054,0.011
			c0.384,0.08,0.768,0.16,1.154,0.223c0.274,0.045,0.55,0.08,0.839,0.116l0.375,0.048l0.239,0.031l-0.025,0.545l1.302-0.325
			c0.219-0.055,0.432-0.103,0.64-0.15c0.499-0.113,0.971-0.219,1.452-0.392c0.615-0.222,1.189-0.506,1.744-0.78l0.304-0.15
			c2.365-1.159,4.949-1.371,7.9-0.647c0.863,0.212,1.726,0.42,2.636,0.64l1.297,0.314l0.198,0.048l-0.077,0.569l0.714-0.415
			l0.17,0.041l0.033-0.159l0.85-0.495l0.393-0.225c0.225-0.128,0.39-0.223,0.549-0.326c0.36-0.232,0.719-0.466,1.078-0.701
			c-0.112,0.188-0.232,0.369-0.329,0.574c-1.164,2.456-2.37,4.944-3.537,7.35c-1.046,2.157-2.092,4.314-3.123,6.478
			c-1.355,2.845-2.693,5.698-4.031,8.551c-0.936,1.996-1.872,3.993-2.815,5.986c-0.362,0.766-0.759,1.541-1.143,2.29
			c-0.183,0.356-0.365,0.713-0.546,1.071l1.228,0.761c-0.813,1.179-1.628,2.357-2.437,3.539c-0.146,0.213-0.276,0.437-0.411,0.673
			c-0.056,0.097-0.113,0.197-0.174,0.299l-0.56,0.939l0.986,0.474l0.099,0.045c0.775,0.332,1.507,0.19,2.175-0.424
			c0.404-0.371,0.879-0.816,1.33-1.297c2.307-2.464,4.606-4.935,6.905-7.405c7.637-8.208,15.533-16.695,23.595-24.749
			c0.294-0.293,0.488-0.604,0.619-0.932l0.33,0.744c1.142,2.577,2.322,5.242,3.569,7.831c0.859,1.785,1.765,3.51,2.723,5.337
			c0.424,0.808,0.854,1.627,1.287,2.466l0.53,1.027l0.155-0.111l0.198,0.34c0.154,0.265,0.299,0.515,0.447,0.765
			c2.64,4.474,5.62,8.806,8.502,12.995c0.607,0.882,1.214,1.765,1.819,2.649c5.498,8.043,12.176,15.708,20.417,23.434
			c2.997,2.81,6.003,4.84,9.19,6.207c0.885,0.38,1.796,0.711,2.707,0.985c6.544,1.967,12.402,3.604,17.908,5.004
			c5.703,1.45,11.869,2.243,19.403,2.494c7.238,0.242,14.438-0.009,21.398-0.746c1.604-0.17,3.018-0.579,4.322-1.25
			c0.157-0.081,0.32-0.156,0.48-0.236l0.036,0.196c0.294,1.605,0.147,3.352-0.463,5.499l-0.428,1.505l0.282-0.045l0.029,0.191
			c0.15,1.004,0.71,1.708,1.204,2.329l0.203,0.258c1.236,1.6,2.209,3.422,2.977,5.57c0.63,1.764,0.642,3.536,0.037,5.416
			c-0.254,0.789-0.468,1.583-0.694,2.424c-0.104,0.389-0.212,0.789-0.329,1.206l-0.128,0.459l-0.608,0.113l0.358,0.783l-0.038,0.137
			l0.094-0.014l0.119,0.26c0.114,0.25,0.212,0.476,0.302,0.685c0.196,0.453,0.365,0.845,0.594,1.231
			c0.243,0.409,0.51,0.791,0.768,1.16c0.194,0.277,0.388,0.555,0.568,0.841c2.097,3.334,2.717,6.781,1.895,10.536
			c-0.135,0.615-0.235,1.244-0.299,1.871c-0.124,1.215,0.608,1.666,0.928,1.803c0.177,0.076,0.374,0.122,0.585,0.138l0.616,0.046
			l0.317-0.53c0.086-0.145,0.211-0.416,0.365-0.786l1.452-0.674c0.055-0.026,0.098-0.043,0.133-0.057
			c0.125-0.051,0.315-0.128,0.492-0.311c0.125-0.129,0.246-0.262,0.368-0.396c0.162-0.178,0.323-0.356,0.497-0.521
			c1.771-1.682,3.779-3.3,6.458-3.75c0.987-0.166,1.742-0.664,2.306-1.522l0.292-0.445l-0.159-0.379l0.405-0.51l0.104-0.127
			c0.082-0.098,0.167-0.199,0.248-0.336l0.086-0.144c0.145-0.242,0.294-0.493,0.424-0.778c1.381-3.028,3.627-5.251,6.868-6.796
			c0.38-0.181,0.722-0.394,1.084-0.62c0.166-0.103,0.34-0.212,0.528-0.324l0.639-0.379l0.057,0.051l0.031-0.103l0.067-0.04
			l-0.034-0.069l0.39-1.297c0.104-0.346,0.204-0.691,0.303-1.033c0.502-1.731,0.977-3.366,1.896-4.784
			c1.081-1.669,2.511-3.012,4.355-4.108l0.054,0.122l0.325-0.35l0.497-0.29l-0.074-0.167l0.285-0.307
			c0.842-0.908,1.143-1.478,1.345-2.541c0.064-0.337,0.119-0.675,0.174-1.014c0.041-0.251,0.081-0.503,0.126-0.754
			c0.669-3.742,2.365-6.474,5.187-8.353c0.356-0.237,0.692-0.488,1.017-0.731c0.144-0.107,0.287-0.214,0.43-0.319l0.125-0.091
			l0.233,0.399l0.831-1.633c0.265-0.521,0.418-1.042,0.466-1.593c0.045-0.514,0.069-1.03,0.092-1.546
			c0.011-0.247,0.022-0.494,0.036-0.741c0.1-1.793,0.562-3.492,1.414-5.193c0.371-0.74,0.894-1.259,1.599-1.586
			c0.187-0.086,0.373-0.174,0.6-0.281l0.365-0.172l0.079-0.037l0.363,0.629l0.182-0.886l0.358-0.168l-0.238-0.413l0.229-1.11
			c0.024-0.119,0.044-0.201,0.059-0.261c0.035-0.146,0.074-0.31,0.053-0.522l-0.01-0.106c-0.022-0.226-0.046-0.482-0.117-0.753
			c-0.72-2.76-0.371-5.521,1.042-8.411c0.015,0.395,0.059,0.786,0.155,1.144c0.522,1.954,0.652,4.075,0.396,6.483
			c-0.058,0.545-0.13,1.089-0.202,1.633c-0.109,0.823-0.222,1.675-0.286,2.53c-0.069,0.927,0.025,1.736,0.28,2.404
			c0.212,0.554,0.584,1.33,1.365,1.665c0.139,0.06,0.277,0.094,0.415,0.119l0.599,0.582c0.218,0.211,0.422,0.413,0.62,0.608
			c0.418,0.412,0.803,0.792,1.202,1.156c3.5,3.193,5.601,7.189,6.424,12.217l0.081,0.498c0.151,0.935,0.306,1.902,0.542,2.853
			c0.155,0.627,0.379,1.211,0.616,1.828c0.103,0.27,0.21,0.548,0.315,0.842l0.368,1.029l0.467-0.215l0.612,0.448
			c0.543,0.398,1.079,0.794,1.611,1.187c1.207,0.892,2.348,1.735,3.535,2.573c2.577,1.818,4.309,4.261,5.295,7.468
			c0.153,0.499,0.297,1,0.441,1.502c0.192,0.671,0.392,1.365,0.613,2.048c0.329,1.016,0.894,2.293,2.363,3.156l0.527,0.31
			l0.213-0.135l0.36,0.299c0.396,0.329,0.802,0.649,1.208,0.969c0.902,0.711,1.755,1.382,2.503,2.153
			c1.194,1.229,2.283,2.641,3.335,4.007l0.224,0.291c0.574,0.744,1.124,1.544,1.656,2.317c0.331,0.481,0.663,0.963,1.003,1.438
			c0.191,0.266,0.408,0.487,0.599,0.682c0.074,0.075,0.148,0.151,0.219,0.228l0.384,0.418l0.556-0.116l0.066-0.014l0.284-0.059
			l0.094-0.02l-0.41,4.235l2.878-9.2c0.302-0.966,0.504-1.945,0.699-2.891c0.315-1.528,0.612-2.97,1.293-4.267
			c0.802-1.528,1.656-2.997,2.56-4.553c0.395-0.681,0.793-1.365,1.189-2.059l0.23-0.403l0.258-0.354
			c1.047-1.438,1.204-2.902,1.224-4.016l0.009-0.61c0.019-1.357,0.039-2.759,0.313-4.032c0.625-2.902,2.164-5.563,4.574-7.91
			c0.369-0.359,0.724-0.733,1.084-1.112c0.16-0.169,0.322-0.339,0.486-0.509l0.622-0.645l-0.375-0.452l0.622-0.11l-0.061-0.897
			c-0.208-3.051-0.217-6.288,1.115-9.291c1.426-3.215,3.746-5.739,5.827-7.784l0.189-0.185l0.673,0.54l0.083-1.976
			c0.009-0.224,0.02-0.419,0.03-0.595c0.02-0.359,0.038-0.669,0.028-0.988c-0.016-0.533-0.052-1.066-0.088-1.599l-0.03-0.452
			c-0.353-5.445,0.975-10.427,3.945-14.806c0.276-0.407,0.475-0.824,0.685-1.265c0.091-0.191,0.186-0.39,0.291-0.594l0.012-0.024
			l0.622,0.311l-0.206-1.118l0.025-0.048l-0.037-0.02l-0.145-0.786c-0.044-0.239-0.078-0.452-0.109-0.648
			c-0.067-0.42-0.125-0.783-0.238-1.158c-0.615-2.029-1.103-3.577-1.585-5.021c-1.295-3.882-1.514-7.539-0.671-11.18
			c0.112-0.483,0.172-0.961,0.235-1.467c0.027-0.214,0.056-0.441,0.09-0.676l0.51,0.125l-0.385-0.988l0.013-0.09l-0.054-0.014
			l-0.273-0.701c-0.091-0.233-0.168-0.449-0.241-0.651c-0.158-0.439-0.307-0.853-0.52-1.255c-0.714-1.347-1.471-2.667-2.051-3.666
			c-2.863-4.933-4.275-9.596-4.315-14.254c-0.005-0.586-0.073-1.163-0.138-1.721c-0.017-0.142-0.032-0.289-0.047-0.433l0.2,0.053
			l-0.257-0.595l-0.045-0.481l-0.184-0.052l-0.328-0.76c-0.482-1.117-1.226-1.725-1.824-2.213l-0.21-0.172
			c-2.283-1.903-5.153-4.54-7.1-8.063c-1.115-2.018-1.92-3.916-2.46-5.801c-0.141-0.49-0.394-1.135-0.978-1.594l1.311-0.245
			l-2.29-1.355c-0.138-0.082-0.263-0.159-0.381-0.231c-0.255-0.157-0.497-0.305-0.76-0.436c-0.404-0.2-0.813-0.393-1.221-0.585
			c-0.615-0.289-1.251-0.589-1.849-0.908c-3.531-1.882-7.121-4.15-9.465-7.972c-0.457-0.745-1.269-1.152-1.597-1.293l-0.065-0.027
			c-0.552-0.225-1.109-0.352-1.648-0.475c-0.206-0.047-0.412-0.094-0.615-0.146l-0.703-0.182c0.027-0.417,0.054-0.815,0.118-1.193
			c0.12-0.716,0.239-1.443,0.355-2.176l0.543-0.033l0.378-0.023l0.421-0.026c1.557-0.099,3.114-0.206,4.671-0.311
			c6.851-0.466,13.935-0.948,20.911-0.84l0.652,0.01c4,0.061,8.137,0.124,12.137,0.748c6.169,0.963,12.335,2.524,18.297,4.033
			c1.525,0.386,3.05,0.772,4.577,1.149c6.509,1.607,12.877,3.168,19.218,4.598c2.261,0.51,4.579,0.864,6.821,1.207
			c0.794,0.121,1.587,0.243,2.379,0.371c0.047,0.008,0.094,0.018,0.143,0.028c0.389,0.08,1.197,0.247,1.969-0.402l0.67-0.563
			L445.827,302.532z M62.97,326.653l0.041-0.027c-0.006,0.014-0.012,0.028-0.018,0.042L62.97,326.653z M98.268,292.399
			c0.455,0.393,0.909,0.786,1.372,1.18c-0.565-0.286-1.122-0.58-1.69-0.857l0.007-0.007L98.268,292.399z M146.961,322.849
			l-0.02,0.001c0.027-0.192,0.051-0.385,0.077-0.578c0.034,0.19,0.057,0.378,0.096,0.57L146.961,322.849z M281.787,434.846
			l-0.055,0.002c0.009-0.038,0.017-0.073,0.025-0.109C281.765,434.775,281.777,434.811,281.787,434.846z M79.584,255.708
			l-0.027,0.003l0.069-0.702c0.053,0.226,0.107,0.451,0.161,0.677L79.584,255.708z"/>
		<g>
			<path d="M160.004,356.453c-1.397-2.706-2.762-5.211-3.998-7.778c-1.393-2.895-2.684-5.839-3.987-8.777
				c-0.27-0.609-0.451-1.27-0.582-1.925c-1.011-5.055-1.975-10.12-3.002-15.172c-0.763-3.757-0.504-7.374,0.957-10.957
				c1.254-3.076,3.164-5.62,5.422-8.014c2.778-2.947,6.096-5.004,9.689-6.766c3.082-1.511,6.246-2.728,9.572-3.552
				c2.002-0.496,3.974-1.125,5.989-1.557c2.75-0.589,5.516-1.133,8.297-1.539c2.907-0.424,5.813-0.823,8.645-1.628
				c0.597-0.17,1.136-0.126,1.735,0.045c7.263,2.071,14.602,3.717,22.212,3.731c0.658,0.001,1.194,0.18,1.761,0.543
				c3.81,2.442,7.707,4.754,11.926,6.417c4.25,1.675,8.67,2.787,13.159,3.67c12.531,2.466,25.152,4.385,37.804,6.074
				c7.421,0.991,14.907,1.494,22.36,2.26c2.956,0.304,5.906,0.685,8.847,1.107c3.225,0.463,6.218,1.648,8.972,3.349
				c3,1.854,5.927,3.827,8.85,5.8c0.848,0.572,1.628,1.271,2.346,2.004c1.653,1.686,2.67,3.704,3.082,6.051
				c0.868,4.943,0.416,9.779-0.914,14.591c-1.625,5.881-4.471,11.171-7.642,16.319c-2.394,3.887-4.922,7.677-7.92,11.132
				c-5.022,5.788-10.85,10.672-17.106,15.05c-3.02,2.114-6.098,4.162-9.263,6.049c-3.746,2.232-7.606,4.275-11.442,6.352
				c-0.448,0.243-1.086,0.341-1.586,0.245c-2.138-0.413-4.281-0.836-6.379-1.414c-7.451-2.055-13.973-5.963-20.222-10.364
				c-7.141-5.029-13.758-10.715-20.34-16.44c-3.83-3.331-7.673-6.638-11.914-9.456c-5.206-3.46-10.661-6.439-16.544-8.573
				c-7.231-2.622-14.649-4.43-22.374-4.707c-7.264-0.261-14.206,1.168-20.797,4.221c-1.214,0.562-2.323,1.357-3.458,2.078
				C161.494,355.345,160.872,355.833,160.004,356.453z"/>
			<path d="M149.899,160.152c-0.54-1.78-1.038-3.407-1.526-5.036c-0.592-1.976-1.194-3.949-1.757-5.934
				c-0.521-1.839-1.112-3.641-2.453-5.211c2.8-2.608,5.714-4.54,9.81-3.669c0.8,6.601,3.829,12.585,5.437,19.107
				c2.284-0.342,4.43-0.663,6.547-0.979c2.108,4.383,4.26,8.857,6.494,13.501c-1.252-0.692-2.364-1.341-3.505-1.932
				c-3.356-1.736-6.768-3.404-10.563-3.856c-2.428-0.289-4.904-0.311-7.354-0.252c-2.591,0.062-4.985,0.956-7.117,2.432
				c-1.203,0.832-2.426,1.689-3.439,2.731c-3.342,3.439-6.62,6.942-9.864,10.474c-1.234,1.343-2.283,2.849-2.967,4.568
				c-1.294,3.252-0.949,6.395,0.753,9.386c1.865,3.28,4.551,5.768,7.758,7.721c1.456,0.887,2.931,1.751,4.332,2.719
				c1.005,0.695,1.974,1.476,2.834,2.342c4.255,4.286,8.979,7.952,14.435,10.548c3.18,1.513,6.533,2.662,9.812,3.966
				c0.368,0.146,0.75,0.267,1.135,0.355c0.639,0.145,0.884,0.618,1.036,1.173c0.261,0.952,0.472,1.919,0.77,2.859
				c2.145,6.768,4.269,13.543,6.483,20.288c0.79,2.408,1.805,4.743,2.729,7.107c0.1,0.255,0.279,0.478,0.518,0.879
				c-0.64,0.123-1.046,0.228-1.458,0.277c-3.466,0.409-6.934,0.802-10.4,1.211c-0.984,0.116-1.981,0.193-2.94,0.421
				c-2.043,0.487-2.875,1.809-2.527,3.894c0.254,1.521,0.927,2.855,1.865,4.069c3.383,4.381,7.152,8.324,11.669,11.615
				c5.708,4.158,11.703,7.736,18.2,10.485c0.17,0.072,0.329,0.168,0.666,0.342c-0.405,0.16-0.632,0.291-0.875,0.338
				c-1.285,0.245-2.566,0.563-3.864,0.684c-6.039,0.558-11.845,2.175-17.683,3.695c-4.936,1.285-9.538,3.35-13.762,6.102
				c-4.71,3.067-8.554,7.055-10.775,12.372c-0.106,0.254-0.216,0.505-0.317,0.74c-0.444-0.045-0.834-0.16-1.202-0.111
				c-3.508,0.466-6.965-0.006-10.415-0.549c-6.242-0.982-12.17-2.935-17.808-5.786c-5.44-2.751-10.442-6.173-15.194-9.963
				c-2.385-1.903-4.661-3.942-6.982-5.925c-0.238-0.203-0.447-0.44-0.698-0.69c0.268-0.236,0.497-0.437,0.802-0.706
				c-0.339-0.379-0.646-0.728-0.959-1.072c-3.164-3.463-5.994-7.186-8.584-11.092c-1.283-1.934-2.138-4.027-2.642-6.321
				c-1.191-5.424-2.552-10.81-3.809-16.219c-0.961-4.133-1.989-8.257-2.764-12.427c-0.659-3.548-0.797-7.168-0.793-10.784
				c0.011-10.612,1.499-21.026,4.221-31.268c0.56-2.106,1.239-4.184,1.96-6.241c0.873-2.49,2.298-4.688,3.819-6.832
				c3.4-4.791,6.91-9.497,11.118-13.618c1.922-1.882,3.948-3.678,6.072-5.328c3.639-2.826,7.828-4.256,12.439-4.548
				c3.877-0.245,7.742-0.675,11.618-0.935c3.797-0.255,7.602-0.407,11.404-0.59c2.971-0.143,5.942-0.261,8.913-0.397
				C148.941,160.266,149.329,160.209,149.899,160.152z"/>
			<path d="M286.771,224.894c-0.714-3.055-0.771-5.899-0.66-8.76c0.143-3.676,0.865-7.249,2.044-10.715
				c1.558-4.581,3.205-9.132,4.857-13.68c2.903-7.99,4.314-16.223,4.179-24.726c-0.042-2.633-0.447-5.213-0.992-7.777
				c-0.09-0.423-0.241-0.841-0.416-1.238c-0.521-1.181-1.448-1.841-2.732-1.657c-1.021,0.146-1.66-0.261-2.248-0.975
				c-1.636-1.991-3.327-3.939-4.916-5.966c-3.208-4.094-6.479-8.134-10.38-11.598c-5.674-5.039-12.025-8.975-19.37-11.048
				c-6.735-1.901-13.459-1.831-20.111,0.63c-3.751,1.388-6.863,3.601-9.424,6.629c-3.231,3.821-6.131,7.893-8.799,12.118
				c-2.579,4.084-3.786,8.53-3.006,13.4c0.144,0.9,0.21,1.812,0.311,2.718c0.215,1.931,0.403,3.866,0.653,5.793
				c0.235,1.816-0.085,3.544-0.624,5.268c-0.508,1.625-1.032,3.257-1.36,4.923c-0.218,1.107-0.149,2.281-0.129,3.423
				c0.022,1.293,0.151,2.583,0.199,3.876c0.158,4.259,0.63,8.464,2.03,12.521c0.061,0.177,0.083,0.368,0.166,0.751
				c-0.411-0.176-0.686-0.275-0.944-0.408c-2.541-1.304-5.062-2.646-7.621-3.914c-4.519-2.238-8.853-4.799-13.172-7.394
				c-6.095-3.662-11.785-7.902-17.505-12.105c-1.091-0.802-1.909-1.722-2.564-2.885c-3.02-5.369-5.801-10.842-7.781-16.697
				c-0.528-1.563-0.844-3.136-0.822-4.778c0.053-4.043,0.045-8.086,0.834-12.084c0.695-3.523,1.899-6.872,3.215-10.196
				c4.009-10.129,10.265-18.741,17.899-26.4c2.264-2.271,4.651-4.434,7.106-6.497c4.28-3.596,8.582-7.175,13.014-10.58
				c5.503-4.227,11.153-8.263,16.729-12.396c2.001-1.483,4.131-2.663,6.628-3.071c2.151-0.352,4.27-0.113,6.377,0.33
				c3.504,0.737,6.874,1.922,10.231,3.133c4.219,1.522,8.391,3.168,12.363,5.271c3.61,1.912,7.211,3.842,10.793,5.804
				c3.137,1.718,6.298,3.365,9.777,4.306c0.563,0.152,1.137,0.393,1.612,0.726c5.223,3.668,10.448,7.335,15.623,11.071
				c1.375,0.993,2.645,2.155,3.85,3.352c3.075,3.053,4.796,6.873,5.883,10.991c1.562,5.917,1.915,11.963,1.805,18.056
				c-0.131,7.232-1.026,14.388-2.012,21.54c-0.844,6.126-1.809,12.25-1.939,18.444c-0.094,4.436-0.043,8.884,0.162,13.317
				c0.28,6.059,1.551,11.948,3.577,17.669c0.397,1.122,0.77,2.253,1.2,3.362c0.211,0.544,0.206,0.959-0.261,1.373
				c-0.563,0.498-1.039,1.097-1.611,1.583c-5.049,4.293-10.178,8.489-15.816,11.997
				C290.834,222.873,288.849,223.789,286.771,224.894z"/>
			<path d="M316.185,201.095c0.557-1.817,1.204-3.611,1.652-5.454c0.918-3.775,1.711-7.58,2.59-11.365
				c1.32-5.684,2.913-11.278,5.104-16.707c1.784-4.418,3.631-8.801,5.736-13.074c0.473-0.96,0.996-1.897,1.477-2.853
				c0.214-0.426,0.488-0.652,1.003-0.679c3.483-0.186,6.964-0.407,10.447-0.612c4.29-0.253,8.58-0.161,12.802,0.629
				c2.602,0.487,5.16,1.271,7.686,2.082c2.108,0.677,4.145,1.58,6.206,2.401c0.347,0.138,0.658,0.366,1.11,0.624
				c-0.913,0.328-1.681,0.523-2.375,0.868c-2.691,1.336-4.657,3.378-5.882,6.139c-1.372,3.092-2.023,6.332-2.102,9.7
				c-0.078,3.339,0.184,6.655,0.584,9.968c0.39,3.228,0.778,6.46,1.038,9.7c0.344,4.286,0.233,8.561-0.826,12.763
				c-1.147,4.551-3.297,8.562-6.479,12.018c-2.54,2.759-5.411,5.12-8.553,7.159c-1.377,0.894-2.836,1.565-4.462,1.894
				c-0.639,0.129-1.213,0.547-1.845,0.744c-5.167,1.61-10.457,2.629-15.82,3.323c-1.725,0.223-3.438,0.578-5.136,0.964
				c-1.251,0.284-2.383,0.898-3.35,1.746c-1.906,1.672-3.863,3.299-5.652,5.091c-5.966,5.977-11.821,12.066-17.807,18.024
				c-6.307,6.278-12.994,12.126-20.458,17.015c-7.951,5.209-16.242,9.797-25.179,13.109c-7.559,2.802-15.349,4.591-23.436,4.894
				c-0.818,0.031-1.643-0.109-2.464-0.169c-0.118-0.009-0.24-0.044-0.353-0.024c-3.062,0.541-6.085,0.034-9.084-0.446
				c-5.447-0.871-10.863-1.953-16.035-3.926c-2.476-0.945-4.858-2.144-7.25-3.297c-5.394-2.6-10.147-6.183-14.865-9.812
				c-1.956-1.505-3.699-3.232-5.241-5.165c-0.989-1.24-2.019-2.448-3.022-3.677c-0.787-0.965-1.383-2.033-1.671-3.254
				c-0.409-1.734,0.104-2.556,1.831-2.913c0.465-0.096,0.94-0.156,1.413-0.197c15.7-1.362,31.091-4.402,46.297-8.475
				c8.661-2.319,17.384-4.411,26.017-6.823c9.172-2.563,18.237-5.5,27.161-8.832c6.088-2.273,12.094-4.77,18.121-7.203
				c5.894-2.379,11.19-5.775,16.158-9.7c2.614-2.065,5.179-4.191,7.755-6.304c0.52-0.426,0.986-0.918,1.474-1.383
				c0.172-0.164,0.309-0.44,0.506-0.49c1.121-0.287,1.468-1.328,2.109-2.08c1.362-1.597,2.687-3.226,4.09-4.785
				c5.97-6.631,11.778-13.399,17.312-20.4c3.762-4.758,7.511-9.526,11.286-14.274c0.912-1.147,1.903-2.231,2.856-3.346
				c0.335-0.391,0.663-0.789,0.996-1.182c0.292-0.345,0.405-0.731,0.021-1.044c-0.399-0.324-0.756-0.057-1.026,0.252
				c-1.227,1.402-2.492,2.775-3.65,4.232c-6.955,8.753-13.75,17.635-21.026,26.129c-2.192,2.559-4.446,5.065-6.677,7.59
				c-0.307,0.348-0.649,0.666-0.974,0.997C316.276,201.169,316.23,201.132,316.185,201.095z"/>
			<path d="M352.55,270.582c-1.659-14.808-5.35-28.829-13.001-41.681c0.453-0.146,0.824-0.268,1.197-0.386
				c5.782-1.845,11.604-3.577,17.173-6.031c6.523-2.874,12.76-6.229,18.293-10.785c4.821-3.969,8.962-8.537,12.027-13.993
				c2.436-4.335,4.12-8.925,4.053-14.01c-0.033-2.52-0.427-4.974-1.166-7.378c-0.854-2.777-2.011-5.423-3.344-8.005
				c-2.14-4.143-5.413-7.226-9.2-9.769c-2.497-1.676-5.116-3.204-7.805-4.547c-2.008-1.003-4.188-1.693-6.342-2.36
				c-2.496-0.773-5.016-1.547-7.582-2c-4.346-0.767-8.754-0.868-13.161-0.559c-2.532,0.178-5.061,0.393-7.593,0.572
				c-0.623,0.044-1.252,0.017-2.002,0.023c0.116-0.705,0.454-1.187,0.753-1.663c1.665-2.653,3.373-5.28,5.029-7.938
				c2.809-4.507,5.838-8.895,7.633-13.957c0.277-0.779,0.565-1.555,0.857-2.354c3.365,0.787,6.747,0.641,10.093,0.92
				c3.783,0.315,7.218-0.766,10.493-2.516c1.049-0.561,2.064-1.185,3.087-1.792c3.688-2.186,7.623-2.992,11.886-2.313
				c5.257,0.837,10.431,2.016,15.528,3.538c2.546,0.76,5.083,1.548,7.621,2.333c0.324,0.1,0.629,0.264,1.125,0.477
				c-0.53,0.297-0.934,0.517-1.332,0.746c-1.947,1.117-3.709,2.452-4.934,4.377c-1.127,1.771-1.702,3.745-2.007,5.802
				c-0.764,5.147,0.099,10.117,1.697,14.995c1.178,3.595,2.856,6.973,4.624,10.305c3.687,6.949,7.98,13.526,12.317,20.077
				c1.423,2.149,2.785,4.34,4.134,6.536c4.534,7.388,6.348,15.499,6.326,24.084c-0.012,4.629-0.548,9.192-2.126,13.566
				c-0.725,2.01-1.687,3.935-2.517,5.908c-0.322,0.764-0.559,1.562-0.872,2.33c-0.129,0.318-0.315,0.634-0.546,0.885
				c-1.076,1.165-2.128,2.357-3.278,3.447c-3.251,3.082-6.509,6.16-9.84,9.155c-1.409,1.267-2.967,2.383-4.529,3.464
				c-2.348,1.624-4.741,3.184-7.147,4.723c-5.103,3.265-10.536,5.794-16.3,7.72c-7.235,2.418-14.544,4.523-21.97,6.247
				c-1.893,0.44-3.768,0.956-5.654,1.43C353.754,270.331,353.253,270.428,352.55,270.582z"/>
			<path d="M338.151,229.3c0.32,0.492,0.659,0.974,0.959,1.478c2.836,4.76,5.011,9.822,6.78,15.06
				c3.971,11.754,5.928,23.841,5.888,36.247c-0.013,4.177-0.637,8.295-1.327,12.405c-0.15,0.89-0.12,1.81-0.263,2.702
				c-0.113,0.7-0.344,1.383-0.56,2.062c-1.481,4.667-3.318,9.18-5.911,13.353c-1.952,3.143-4.268,6.01-6.766,8.732
				c-0.076,0.083-0.187,0.134-0.344,0.244c-1.052-0.75-2.101-1.516-3.167-2.257c-3.031-2.107-6.119-4.12-9.441-5.75
				c-2.407-1.18-4.949-1.893-7.589-2.337c-4.624-0.777-9.293-1.065-13.956-1.456c-11.545-0.97-23-2.624-34.445-4.401
				c-7.33-1.138-14.626-2.444-21.901-3.871c-4.761-0.934-9.415-2.285-13.779-4.448c-2.485-1.232-4.877-2.652-7.306-3.995
				c-0.165-0.091-0.296-0.244-0.549-0.458c0.308-0.062,0.486-0.121,0.667-0.131c10.81-0.626,21.002-3.578,30.739-8.21
				c9.82-4.672,19.081-10.259,27.464-17.211c5.59-4.636,10.797-9.695,15.863-14.899c4.398-4.518,8.805-9.027,13.256-13.492
				c1.452-1.457,3.064-2.755,4.585-4.145c1.457-1.331,3.207-2.022,5.107-2.39c0.817-0.158,1.64-0.298,2.467-0.394
				c4.261-0.496,8.482-1.212,12.642-2.268C337.531,229.402,337.805,229.365,338.151,229.3z"/>
			<path d="M283.203,400.617c-0.146,0.115-0.277,0.253-0.435,0.337c-4.207,2.225-8.41,4.455-12.628,6.657
				c-1.476,0.771-3.005,1.442-4.485,2.204c-1.254,0.646-2.568,0.997-3.969,1.145c-7.07,0.748-14.153,0.978-21.26,0.741
				c-6.48-0.216-12.908-0.866-19.19-2.464c-5.992-1.523-11.945-3.213-17.866-4.993c-4.4-1.323-8.15-3.822-11.501-6.964
				c-7.545-7.074-14.426-14.711-20.275-23.269c-3.514-5.141-7.118-10.22-10.285-15.588c-0.217-0.368-0.431-0.739-0.673-1.155
				c2.034-1.531,3.989-2.973,6.275-3.958c8.484-3.655,17.273-4.513,26.34-3.045c7.724,1.25,15.146,3.487,22.157,6.973
				c6.6,3.281,12.642,7.411,18.197,12.261c6.242,5.448,12.501,10.876,19.081,15.921c5.204,3.99,10.638,7.621,16.527,10.522
				c3.82,1.883,7.85,3.207,12.02,4.092c0.619,0.132,1.232,0.291,1.847,0.442C283.108,400.486,283.13,400.535,283.203,400.617z"/>
			<path d="M284.974,89.218c0.351-0.018,0.543-0.055,0.729-0.033c3.951,0.482,7.911,0.311,11.876,0.269
				c5.15-0.054,10.322-0.192,15.448,0.188c8.715,0.645,16.408,4.015,23.089,9.673c2.144,1.816,3.827,4.017,5.358,6.336
				c1.507,2.282,2.914,4.632,4.366,6.951c1.262,2.015,1.795,4.209,1.661,6.581c-0.047,0.83,0.023,1.667-0.042,2.495
				c-0.045,0.583-0.18,1.17-0.357,1.729c-1.458,4.614-3.759,8.807-6.359,12.864c-2.695,4.205-5.379,8.42-7.921,12.718
				c-1.589,2.687-3.026,5.48-4.314,8.323c-1.815,4.009-3.515,8.076-5.108,12.178c-2.172,5.594-3.577,11.416-4.87,17.269
				c-0.82,3.714-1.639,7.438-2.714,11.083c-0.702,2.382-1.832,4.641-2.837,6.926c-0.246,0.559-0.752,1.004-1.291,1.698
				c-0.243-0.593-0.424-1.007-0.584-1.428c-3.023-7.951-4.321-16.192-4.485-24.685c-0.161-8.283,0.685-16.466,1.813-24.64
				c0.98-7.108,1.974-14.212,2.197-21.4c0.207-6.646-0.047-13.245-1.659-19.731c-1.311-5.277-3.667-9.97-7.857-13.573
				c-1.47-1.264-3.013-2.454-4.589-3.585c-3.509-2.52-7.06-4.981-10.592-7.469C285.648,89.755,285.381,89.532,284.974,89.218z"/>
			<path d="M132.221,181.6c0.821-0.919,1.484-1.699,2.188-2.44c1.993-2.098,3.965-4.219,6.022-6.254
				c1.151-1.139,2.399-2.197,3.699-3.164c2.186-1.626,4.683-2.44,7.411-2.621c5.618-0.373,10.883,0.807,15.8,3.522
				c1.942,1.073,3.85,2.208,5.745,3.361c0.599,0.365,1.106,0.883,1.653,1.332c0.091,0.075,0.162,0.194,0.264,0.233
				c2.125,0.806,3.684,2.447,5.46,3.752c6.496,4.775,13.233,9.168,20.304,13.036c3.409,1.865,6.879,3.619,10.332,5.402
				c1.726,0.891,3.486,1.717,5.206,2.619c0.309,0.162,0.6,0.516,0.727,0.847c1.35,3.504,3.339,6.662,5.304,9.831
				c1.437,2.317,3.206,4.357,5.543,5.801c3.01,1.861,6.222,3.312,9.532,4.575c4.602,1.757,9.298,3.219,14.035,4.529
				c6.647,1.837,13.294,3.711,20.165,4.572c0.185,0.023,0.364,0.095,0.574,0.335c-1.55,0.566-3.065,1.292-4.662,1.642
				c-1.039,0.228-2.198-0.08-3.301-0.171c-0.55-0.045-1.094-0.186-1.643-0.21c-7.405-0.329-14.826-0.446-22.213-1.009
				c-11.661-0.888-23.299-2.066-34.946-3.135c-2.487-0.228-4.968-0.526-7.454-0.768c-0.577-0.056-1.013-0.281-1.479-0.634
				c-2.646-2.002-4.859-4.447-7.002-6.936c-4.112-4.777-8.102-9.66-12.166-14.479c-3.636-4.312-7.489-8.402-12.023-11.809
				c-4.854-3.646-10.089-6.596-15.777-8.704c-4.211-1.56-8.519-2.798-13.044-3.028C135.138,181.559,133.794,181.606,132.221,181.6z"
				/>
			<path d="M409.024,124.614c2.037,0.733,4.096,1.445,6.135,2.213c5.122,1.929,10.235,3.882,15.35,5.831
				c0.593,0.226,1.174,0.483,1.761,0.725c5.053,2.083,8.081,5.974,9.352,11.13c1.223,4.963,2.029,10.019,2.327,15.149
				c0.498,8.557,0.728,17.109,0.191,25.673c-0.327,5.203-1.171,10.306-2.611,15.323c-1.172,4.086-2.418,8.147-4.218,11.998
				c-2.982,6.38-6.563,12.401-11.218,17.733c-0.146,0.167-0.316,0.313-0.65,0.642c0.563-1.313,1.024-2.387,1.484-3.46
				c2.307-5.38,3.128-11.035,3.081-16.843c-0.068-8.452-1.866-16.461-6.331-23.729c-2.47-4.02-5.048-7.975-7.633-11.923
				c-3.892-5.946-7.552-12.024-10.705-18.399c-2.375-4.802-4.121-9.793-4.6-15.171c-0.202-2.265-0.082-4.508,0.277-6.753
				c0.644-4.028,2.859-6.881,6.405-8.777C408.589,125.349,408.59,125.35,409.024,124.614z"/>
			<path d="M238.891,186.415c-0.473,0.035-0.707,0.079-0.937,0.066c-5.224-0.315-10.442-0.689-15.602-1.617
				c-2.236-0.402-4.385-1.069-6.444-2.044c-0.567-0.268-0.934-0.611-0.934-1.227c-0.001-1.102-0.11-2.236,0.111-3.298
				c0.361-1.74,0.92-3.443,1.449-5.145c0.514-1.652,0.74-3.315,0.539-5.043c-0.358-3.071-0.682-6.146-1.018-9.22
				c-0.212-1.941-0.248-3.878,0.191-5.797c0.591-2.587,1.725-4.965,3.198-7.126c2.342-3.436,4.833-6.773,7.333-10.098
				c0.852-1.133,1.894-2.131,2.9-3.141c1.472-1.476,3.209-2.564,5.114-3.415c6.612-2.953,13.425-3.251,20.36-1.481
				c5.449,1.391,10.298,4.046,14.882,7.262c4.193,2.941,7.775,6.513,11.03,10.421c2.866,3.441,5.618,6.977,8.423,10.469
				c0.216,0.269,0.45,0.524,0.736,1.122c-0.2-0.004-0.406-0.042-0.599-0.007c-4.134,0.743-8.18,1.946-12.371,2.396
				c-0.315,0.034-0.634,0.045-0.947,0.093c-0.834,0.127-1.5-0.129-2.185-0.649c-3.756-2.853-7.879-4.999-12.398-6.403
				c-2.173-0.675-4.364-1.138-6.634-1.278c-4.035-0.25-7.714,0.778-10.995,3.113c-1.319,0.938-2.552,2.011-3.75,3.105
				c-1.861,1.699-3.01,3.861-3.785,6.235c-0.364,1.116-0.3,2.258-0.279,3.413c0.022,1.192,0.57,2.2,0.887,3.29
				c0.9,3.096,1.454,6.26,1.605,9.48C238.873,182.019,238.855,184.155,238.891,186.415z"/>
			<path d="M215.136,184.684c1.419,0.457,2.586,1.041,3.633,1.801c2.374,1.722,4.685,3.531,7.042,5.277
				c3.192,2.365,6.497,4.568,10.119,6.218c5.605,2.554,11.481,3.93,17.674,3.46c4.044-0.307,7.876-1.492,11.435-3.43
				c3.247-1.768,6.272-3.872,9.008-6.383c6.192-5.685,12.401-11.351,18.614-17.013c0.927-0.845,1.909-1.63,3.07-2.615
				c-0.001,0.56,0.019,0.856-0.005,1.149c-0.459,5.597-1.475,11.084-3.345,16.389c-1.371,3.891-2.818,7.755-4.207,11.639
				c-2.013,5.629-3.614,11.35-3.396,17.408c0.068,1.897,0.327,3.787,0.506,5.68c0.033,0.351,0.104,0.699,0.166,1.104
				c-0.338,0.171-0.642,0.346-0.963,0.482c-2.374,1.006-4.751,2.008-7.129,3.005c-1.051,0.441-2.053,0.851-3.296,0.595
				c-1.7-0.351-3.463-0.386-5.184-0.654c-4.395-0.685-8.702-1.781-12.975-2.995c-4.958-1.408-9.92-2.816-14.816-4.421
				c-4.145-1.359-8.194-3.007-11.96-5.264c-2.044-1.225-3.725-2.838-5.043-4.803c-3.129-4.664-5.846-9.535-7.395-14.985
				C215.629,192.597,215.232,188.785,215.136,184.684z"/>
			<path d="M181.507,255.311c-0.377-0.825-0.78-1.597-1.089-2.404c-0.877-2.297-1.808-4.579-2.552-6.919
				c-1.947-6.123-3.799-12.276-5.708-18.411c-0.234-0.751-0.587-1.464-0.878-2.197c-0.185-0.465-0.357-0.935-0.601-1.576
				c1.649,0.44,3.084,0.855,4.535,1.205c5.365,1.293,10.813,2.075,16.29,2.732c16.338,1.96,32.719,3.465,49.122,4.714
				c6.953,0.529,13.936,0.669,20.905,0.996c0.784,0.037,1.565,0.14,2.4,0.437c-0.333,0.137-0.66,0.292-1,0.409
				c-12.494,4.307-25.104,8.224-37.944,11.381c-8.743,2.15-17.455,4.437-26.225,6.469c-5.017,1.162-10.123,1.94-15.191,2.881
				C182.915,255.151,182.246,255.212,181.507,255.311z"/>
			<path d="M352.275,291.449c0.988-6.462,1.04-12.826,0.419-19.291c0.464-0.136,0.867-0.278,1.28-0.373
				c10.58-2.424,21.144-2.367,31.717,0.105c7.968,1.863,15.503,4.855,22.834,8.427c7.259,3.537,13.998,7.941,20.682,12.43
				c4.903,3.293,9.739,6.687,15.059,9.476c-0.477,0.4-0.925,0.215-1.309,0.152c-3.052-0.494-6.128-0.887-9.14-1.566
				c-6.419-1.447-12.81-3.016-19.199-4.593c-7.62-1.882-15.188-3.986-22.959-5.199c-4.284-0.669-8.604-0.703-12.928-0.77
				c-8.579-0.134-17.115,0.607-25.661,1.153C352.875,291.413,352.679,291.424,352.275,291.449z"/>
			<path d="M349.906,223.932c0.33-0.262,0.656-0.529,0.991-0.785c2.911-2.226,5.606-4.683,7.773-7.651
				c3.691-5.055,5.445-10.772,5.688-17c0.181-4.62-0.331-9.189-0.898-13.755c-0.464-3.741-0.899-7.48-0.857-11.26
				c0.038-3.49,0.614-6.857,2.059-10.063c1.161-2.574,3.017-4.459,5.544-5.645c0.806-0.378,1.742-0.538,2.637-0.647
				c0.604-0.074,1.216,0.117,1.795,0.451c2.83,1.632,5.465,3.512,7.818,5.788c1.465,1.418,2.724,2.983,3.717,4.765
				c2.216,3.98,3.969,8.131,4.609,12.677c0.542,3.85,0.037,7.589-1.321,11.225c-2.446,6.546-6.639,11.869-11.679,16.576
				c-3.258,3.043-6.866,5.648-10.738,7.848c-5.113,2.905-10.422,5.409-15.995,7.321c-0.336,0.115-0.677,0.216-1.016,0.324
				C349.991,224.044,349.949,223.988,349.906,223.932z"/>
			<path d="M194.947,226.81c-2.551-0.297-4.911-0.555-7.267-0.848c-9.58-1.194-18.837-3.582-27.675-7.517
				c-5.346-2.381-10.15-5.59-14.274-9.72c-2.498-2.502-5.311-4.503-8.325-6.272c-2.418-1.419-4.557-3.159-6.331-5.335
				c-1.189-1.459-2.147-3.044-2.611-4.894c-0.809-3.228,0.083-6.053,2.145-8.53c0.409-0.491,1.189-0.842,1.841-0.928
				c1.326-0.174,2.686-0.209,4.025-0.147c3.51,0.163,6.893,1.012,10.224,2.085c7.257,2.337,13.796,5.993,19.715,10.776
				c3.685,2.978,6.888,6.442,9.927,10.057c3.342,3.975,6.551,8.063,9.96,11.979c2.652,3.046,5.521,5.902,8.292,8.843
				C194.673,226.443,194.738,226.541,194.947,226.81z"/>
			<path d="M335.762,421.345c-0.339-0.948-0.696-1.742-0.902-2.574c-0.266-1.075-0.427-2.178-0.606-3.273
				c-0.821-5.016-2.95-9.34-6.737-12.795c-0.58-0.529-1.129-1.091-1.798-1.742c14.737-8.442,29.89-15.692,46.133-20.505
				c0.843,2.213,0.529,18.726-0.405,23.884c-1.144,0.371-2.271,0.693-3.367,1.098c-6.19,2.285-12.079,5.211-17.873,8.35
				c-4.392,2.379-8.83,4.674-13.25,7.003C336.646,420.955,336.319,421.088,335.762,421.345z"/>
			<path d="M320.548,380.13c0.308-0.15,0.582-0.307,0.873-0.421c5.611-2.205,11.201-4.466,16.842-6.59
				c8.131-3.063,16.369-5.823,24.729-8.198c1.863-0.529,3.792-0.829,5.695-1.211c0.378-0.076,0.779-0.041,1.247-0.06
				c1.228,5.235,1.83,10.49,2.081,15.871c-0.413,0.112-0.787,0.197-1.151,0.315c-3.656,1.192-7.362,2.25-10.954,3.611
				c-11.597,4.393-22.727,9.783-33.465,15.985c-0.172,0.099-0.344,0.198-0.516,0.297c-1.209,0.694-1.855,0.53-2.352-0.772
				c-0.229-0.601-0.266-1.32-0.217-1.972c0.103-1.382,0.339-2.753,0.485-4.132c0.245-2.304,0.179-4.591-0.424-6.847
				c-0.101-0.377-0.144-0.783-0.136-1.174c0.033-1.688-0.644-2.99-2.046-3.926c-0.228-0.152-0.429-0.345-0.638-0.524
				C320.578,380.362,320.583,380.309,320.548,380.13z"/>
			<path d="M125.671,65.507c0.688,0.365,1.297,0.629,1.845,0.988c3.203,2.101,5.728,4.882,7.776,8.08
				c5.402,8.433,8.743,17.66,10.386,27.515c0.799,4.793,1.005,9.61,0.378,14.448c-0.342,2.641-0.932,5.224-1.713,7.766
				c-0.246,0.799-0.747,1.372-1.633,1.746c-1.452-1.665-2.99-3.267-4.342-5.012c-3.407-4.395-6.422-9.049-8.891-14.044
				c-5.656-11.442-7.491-23.47-5.514-36.073c0.202-1.285,0.587-2.545,0.948-3.8C125.058,66.606,125.367,66.138,125.671,65.507z"/>
			<path d="M253.031,184.801c-0.393-0.205-0.601-0.288-0.78-0.411c-4.898-3.39-9.251-7.336-12.475-12.402
				c-0.677-1.064-1.252-2.21-1.736-3.376c-0.73-1.757-0.667-3.55,0.024-5.333c0.773-1.994,1.906-3.735,3.489-5.177
				c0.469-0.427,0.937-0.854,1.415-1.27c5.263-4.583,11.252-5.235,17.721-3.263c0.872,0.266,1.736,0.559,2.592,0.872
				c5.096,1.862,9.564,4.733,13.535,8.413c3.689,3.419,6.836,7.269,9.364,11.621c0.216,0.372,0.415,0.753,0.69,1.252
				c-1.089,0.626-2.103,1.208-3.115,1.79c-0.982-0.948-1.926-1.789-2.789-2.706c-1.927-2.047-4.392-2.834-7.074-2.852
				c-4.539-0.031-9.031,0.485-13.359,1.935c-2.404,0.805-4.759,1.756-7.134,2.647c-0.296,0.111-0.582,0.252-0.865,0.396
				c-1.294,0.66-1.545,1.212-1.132,2.593c0.431,1.443,0.89,2.878,1.337,4.317C252.818,184.098,252.894,184.352,253.031,184.801z"/>
			<path d="M365.459,347.701c0.125,0.472,0.192,0.824,0.311,1.159c1.406,3.965,2.667,7.972,3.614,12.074
				c0.027,0.116,0.058,0.231,0.084,0.347c0.264,1.193,0.189,1.276-0.985,1.461c-1.134,0.179-2.287,0.32-3.385,0.637
				c-4.265,1.232-8.531,2.469-12.762,3.811c-8.813,2.794-17.471,6.018-26.011,9.561c-2.231,0.925-4.475,1.82-6.709,2.727
				c-0.492-1.039-0.511-1.06,0.147-1.679c5.539-5.207,9.878-11.338,13.75-17.83c0.547-0.917,0.956-2.027,1.741-2.661
				c0.822-0.663,2.015-0.875,3.055-1.258c2.382-0.877,4.738-1.84,7.161-2.584c5.913-1.814,11.856-3.526,17.791-5.268
				C363.903,348.011,364.568,347.9,365.459,347.701z"/>
			<path d="M350.632,440.017c-1.08-0.635-1.584-1.569-1.918-2.602c-0.379-1.169-0.688-2.361-1.049-3.536
				c-1.011-3.287-2.838-5.99-5.674-7.991c-1.712-1.208-3.386-2.471-5.132-3.75c0.162-0.161,0.249-0.3,0.375-0.366
				c7.7-4.021,15.37-8.1,23.122-12.017c2.789-1.409,5.77-2.439,8.672-3.621c0.691-0.281,1.417-0.478,2.301-0.771
				c-0.064,0.593-0.104,1.05-0.164,1.504c-0.88,6.61-2.309,13.114-3.747,19.617c-0.24,1.084-0.5,2.164-0.707,3.254
				c-0.121,0.637-0.39,0.99-1.046,1.262c-1.386,0.575-2.751,1.243-4.028,2.029c-3.209,1.974-6.365,4.034-9.542,6.06
				C351.628,439.385,351.161,439.681,350.632,440.017z"/>
			<path d="M219.729,185.661c0.533,0.108,1.067,0.216,1.6,0.323c4.715,0.95,9.494,1.36,14.284,1.647
				c5.896,0.354,11.793,0.751,17.706,0.375c0.304-0.019,0.615,0.08,0.924,0.116c0.19,0.022,0.39,0.067,0.572,0.033
				c0.767-0.143,1.522-0.382,2.295-0.461c7.913-0.811,15.347-3.23,22.467-6.686c3.603-1.749,7.215-3.489,10.51-5.801
				c0.125-0.088,0.269-0.15,0.489-0.132c-0.202,0.215-0.39,0.444-0.607,0.642c-5.792,5.297-11.532,10.653-17.401,15.864
				c-4.471,3.97-9.514,6.978-15.441,8.329c-4.515,1.029-8.972,0.691-13.437-0.294c-5.643-1.245-10.624-3.897-15.277-7.208
				c-2.968-2.112-5.841-4.358-8.756-6.544C219.681,185.797,219.705,185.729,219.729,185.661z"/>
			<path d="M366.724,268.481c2.289-0.637,4.6-1.206,6.862-1.926c4.005-1.275,7.976-2.654,11.973-3.955
				c0.544-0.177,1.169-0.285,1.729-0.211c4.047,0.537,8.065,1.216,12.015,2.303c3.317,0.913,6.432,2.261,9.385,3.99
				c9.543,5.587,17.981,12.56,25.569,20.575c3.515,3.713,6.957,7.493,10.431,11.244c0.129,0.139,0.24,0.294,0.274,0.572
				c-0.21-0.09-0.427-0.165-0.628-0.272c-5.893-3.137-11.27-7.082-16.823-10.752c-5.591-3.695-11.229-7.318-17.233-10.315
				c-11.109-5.546-22.633-9.792-35.132-10.812c-2.445-0.199-4.909-0.168-7.364-0.24c-0.346-0.01-0.693-0.003-1.039-0.004
				C366.737,268.612,366.73,268.547,366.724,268.481z"/>
			<path d="M353.717,321.912c9.881,1.935,19.428,4.531,29.041,7.225c0.079,0.842,0.211,1.625,0.218,2.408
				c0.047,5.353,1.801,10.182,4.451,14.747c0.696,1.2,1.383,2.407,2.033,3.632c0.269,0.508,0.43,1.074,0.713,1.8
				c-7.934-1.949-15.629-3.966-23.598-4.773c-1.878-4.218-3.598-8.573-5.724-12.719C358.723,330.085,356.19,326.145,353.717,321.912
				z"/>
			<path d="M336.08,355.871c0.719-1.677,1.324-3.137,1.969-4.58c2.021-4.526,3.335-9.232,3.711-14.189
				c0.236-3.114-0.09-6.172-0.813-9.198c-0.045-0.187-0.087-0.375-0.14-0.601c3.743-1.702,7.45-3.388,11.256-5.119
				c5.303,7.611,9.701,15.711,12.793,24.601C355.111,349.274,345.505,352.082,336.08,355.871z"/>
			<path d="M117.251,60.065c0.296,0.256,0.553,0.434,0.756,0.661c1.004,1.124,1.985,2.266,2.989,3.39
				c1.134,1.27,1.769,2.801,2.307,4.38c0.069,0.203,0.023,0.461-0.019,0.685c-2.684,14.458-0.346,28.091,6.731,40.942
				c2.898,5.263,6.232,10.224,10.284,14.681c0.176,0.194,0.32,0.418,0.386,0.794c-0.728-0.243-1.47-0.449-2.181-0.735
				c-2.538-1.018-5.057-2.086-7.601-3.09c-1.907-0.752-3.388-2.018-4.65-3.591c-3.932-4.899-7.042-10.262-9.169-16.182
				c-0.483-1.344-0.946-2.696-1.399-4.05c-2.092-6.251-2.23-12.606-1.003-19.034c0.468-2.453,0.922-4.91,1.373-7.366
				c0.589-3.209,0.882-6.439,0.72-9.705C116.745,61.27,116.611,60.651,117.251,60.065z"/>
			<path d="M129.705,337.002c-1.407-0.341-2.669-0.644-3.93-0.953c-2.941-0.721-5.811-0.636-8.578,0.72
				c-0.64,0.314-1.278,0.647-1.946,0.887c-0.616,0.222-1.273,0.332-1.995,0.513c0.511-11.231,1.014-22.289,1.524-33.492
				c5.481,3.052,11.23,5.532,17.531,6.873c0.009,0.57,0.025,1.072,0.023,1.573c-0.022,4.527-0.599,9.009-1.127,13.493
				c-0.366,3.107-0.845,6.2-1.279,9.299C129.884,336.222,129.804,336.524,129.705,337.002z"/>
			<path d="M96.139,338.052c0.58-9.339,1.154-18.592,1.737-27.994c5.072-1.794,10.155-3.914,15.605-5.6
				c0.057,0.652,0.147,1.14,0.134,1.626c-0.103,3.726-0.177,7.453-0.353,11.175c-0.309,6.534-0.684,13.065-1.035,19.597
				c-0.017,0.313-0.068,0.625-0.116,1.04c-0.421-0.056-0.803-0.096-1.183-0.159c-0.391-0.064-0.779-0.146-1.168-0.227
				c-3.111-0.648-6.148-0.547-9.058,0.882C99.141,339.16,97.64,338.999,96.139,338.052z"/>
			<path d="M145.78,123.25c0.398-1.992,0.803-3.729,1.085-5.485c0.908-5.664,0.628-11.313-0.399-16.929
				c-1.746-9.547-5.046-18.511-10.29-26.709c-2.046-3.198-4.549-5.997-7.695-8.183c-0.325-0.226-0.64-0.628-0.731-1.004
				c-0.744-3.061-1.021-6.176-0.964-9.323c0.001-0.072,0.058-0.143,0.132-0.315c0.218,0.048,0.487,0.055,0.699,0.168
				c0.238,0.127,0.449,0.328,0.631,0.533c2.639,2.978,5.733,5.47,8.673,8.126c8.382,7.574,13.694,16.859,15.673,28.022
				c1.087,6.134,0.997,12.228-0.41,18.301c-0.447,1.931-0.834,3.877-1.323,5.797c-0.152,0.597-0.485,1.176-0.844,1.686
				c-1.025,1.455-2.094,2.879-3.172,4.296C146.594,122.562,146.242,122.815,145.78,123.25z"/>
			<path d="M96.796,310.462c-0.398,9.192-1.035,18.096-1.66,27.07c-1.421-0.473-2.694-0.879-3.955-1.32
				c-1.294-0.453-2.623-0.64-3.977-0.467c-1.53,0.196-3.059,0.422-4.572,0.718c-1.499,0.294-2.97,0.355-4.506-0.083
				c-0.013-0.214-0.051-0.404-0.032-0.589c0.576-5.671,1.171-11.341,1.718-17.015c0.059-0.61,0.393-0.812,0.826-1.013
				c4.527-2.101,9.054-4.205,13.588-6.291C94.975,311.128,95.761,310.866,96.796,310.462z"/>
			<path d="M392.587,373.362c-0.831-0.415-1.428-0.706-2.017-1.01c-2.818-1.454-5.613-2.957-8.458-4.358
				c-3.379-1.664-6.797-3.251-10.209-4.846c-0.509-0.238-0.819-0.521-0.941-1.096c-0.964-4.549-2.32-8.986-3.867-13.367
				c-0.061-0.173-0.084-0.361-0.165-0.725c8.005,0.935,15.663,2.835,23.382,4.857c-0.119,0.814-0.169,1.484-0.319,2.13
				c-0.922,3.979-0.587,7.874,0.696,11.722c0.552,1.656,1.07,3.323,1.576,4.994C392.408,372.136,392.453,372.636,392.587,373.362z"
				/>
			<path d="M345.835,311.652c0.585-1.137,1.139-2.216,1.644-3.196c2.782,0.302,5.41,0.658,8.05,0.857
				c4.427,0.334,8.859,0.601,13.293,0.818c1.057,0.052,1.518,0.463,1.799,1.443c0.602,2.1,1.482,4.084,2.546,6.009
				c1.843,3.335,4.454,5.945,7.335,8.347c0.625,0.521,1.32,1.004,1.756,2.013c-1.11-0.293-2.047-0.53-2.979-0.789
				c-7.717-2.147-15.469-4.152-23.309-5.804c-0.814-0.172-1.631-0.352-2.456-0.447c-0.574-0.067-0.962-0.314-1.232-0.797
				c-0.019-0.034-0.047-0.064-0.069-0.097C350.215,317.155,348.326,314.219,345.835,311.652z"/>
			<path d="M387.44,395.125c-0.404-0.324-0.571-0.432-0.706-0.571c-4.145-4.254-8.279-8.519-12.438-12.759
				c-0.652-0.665-0.926-1.388-0.972-2.317c-0.239-4.872-0.741-9.716-1.753-14.496c-0.054-0.255-0.052-0.522-0.094-0.964
				c7.212,3.151,14.017,6.741,20.933,10.392c-0.336,0.653-0.567,1.243-0.915,1.755c-3.166,4.669-4.478,9.826-4.115,15.432
				c0.043,0.672,0.097,1.344,0.117,2.016C387.51,394.031,387.468,394.451,387.44,395.125z"/>
			<path d="M294.003,396.522c3.536-2.205,6.924-4.318,10.35-6.454c3.181,6.203,6.366,12.417,9.597,18.718
				c-0.465,0.339-0.926,0.702-1.413,1.026c-3.237,2.155-4.947,5.257-5.618,9.009c-0.104,0.585-0.187,1.173-0.298,1.757
				c-0.167,0.88-0.378,1.274-1.096,2.048C301.667,413.884,297.83,405.191,294.003,396.522z"/>
			<path d="M78.753,298.827c0.291-0.63,0.774-0.793,1.296-0.86c0.51-0.065,1.027-0.128,1.539-0.117
				c2.966,0.062,5.023-1.493,6.605-3.788c0.529-0.767,0.813-1.703,1.211-2.562c0.207-0.448,0.417-0.895,0.632-1.356
				c0.875,0.375,1.61,0.659,2.317,0.999c3.035,1.46,6.111,2.846,9.071,4.445c1.517,0.82,2.805,2.055,4.227,3.06
				c2.193,1.551,4.412,3.066,6.695,4.647c-0.138,0.098-0.241,0.208-0.367,0.254c-4.357,1.589-8.74,3.112-13.063,4.789
				c-1.416,0.549-2.618,0.367-3.839-0.298c-1.948-1.062-3.872-2.168-5.808-3.253c-3.076-1.723-6.155-3.442-9.229-5.168
				C79.6,299.371,79.179,299.09,78.753,298.827z"/>
			<path d="M147.511,312.822c-0.088,0.446-0.14,0.789-0.224,1.124c-0.438,1.738-0.544,3.507-0.628,5.293
				c-0.086,1.812-0.363,3.618-0.627,5.416c-0.287,1.958-0.637,3.908-1.003,5.853c-0.089,0.474-0.108,0.966-0.589,1.361
				c-0.438,0.36-0.804,0.539-1.354,0.441c-2.918-0.517-5.581,0.179-8.049,1.741c-1.1,0.696-2.184,1.417-3.278,2.122
				c-0.227,0.146-0.466,0.273-0.903,0.527c1.129-8.348,2.374-16.497,2.505-24.892C138.058,312.65,142.685,313.467,147.511,312.822z"
				/>
			<path d="M293.696,398.267c3.727,8.444,7.372,16.704,11.077,25.099c-2.018,1.178-3.588,2.633-4.796,4.496
				c-1.189,1.835-1.669,3.919-2.317,6.073c-0.185-0.166-0.324-0.237-0.379-0.348c-2.593-5.311-5.201-10.615-7.755-15.945
				c-1.022-2.133-0.967-2.16-0.32-4.402c1.397-4.838,2.794-9.675,4.194-14.512C293.42,398.657,293.481,398.597,293.696,398.267z"/>
			<path d="M270.408,435.288c0.367-1.315,0.649-2.467,1.011-3.592c0.654-2.032,0.68-4.022-0.047-6.058
				c-0.754-2.113-1.755-4.069-3.127-5.845c-0.499-0.646-1.081-1.266-1.209-2.124c1.035-0.471,18.847-3.304,20.361-3.236
				c-0.023,0.221-0.012,0.449-0.074,0.653c-1.674,5.498-3.349,10.995-5.041,16.488c-0.52,1.689-0.546,1.666-2.298,1.981
				c-2.848,0.512-5.691,1.049-8.537,1.574C271.181,435.177,270.912,435.211,270.408,435.288z"/>
			<path d="M148.754,330.926c0.183,0.762,0.315,1.216,0.399,1.678c0.402,2.224,0.774,4.455,1.195,6.675
				c0.116,0.611-0.021,1.035-0.465,1.479c-10.463,10.452-20.418,21.387-30.524,32.178c-0.406,0.433-0.839,0.843-1.276,1.245
				c-0.297,0.273-0.634,0.469-1.163,0.215c0.196-0.328,0.357-0.635,0.551-0.919c4.633-6.771,9.365-13.476,13.879-20.326
				c4.146-6.291,8.439-12.476,12.827-18.597c0.334-0.466,0.82-0.83,1.26-1.212c0.508-0.441,1.031-0.869,1.573-1.266
				C147.506,331.711,148.038,331.394,148.754,330.926z"/>
			<path d="M267.127,416.437c0.598-2.103,0.832-4.056,0.485-5.952c8.252-4.381,16.425-8.72,24.802-13.167
				c-1.435,5.452-3.092,10.667-4.531,15.84C280.955,414.252,274.154,415.327,267.127,416.437z"/>
			<path d="M78.281,299.745c5.78,3.238,11.448,6.414,17.109,9.586c0.005,0.047,0.015,0.084,0.01,0.118
				c-0.005,0.037-0.015,0.092-0.04,0.103c-5.382,2.42-10.765,4.837-16.314,7.328c-3.145-2.298-6.44-4.698-9.724-7.113
				c-0.559-0.411-0.566-0.787-0.026-1.243c0.262-0.221,0.607-0.369,0.938-0.478c2.986-0.985,5.06-3.033,6.622-5.669
				C77.34,301.565,77.759,300.715,78.281,299.745z"/>
			<path d="M386.794,396.075c-2.469,2.426-4.654,4.966-6.041,8.092c-1.384,3.119-1.427,6.421-1.199,9.764
				c-0.08,0.014-0.16,0.028-0.24,0.042c-0.258-0.278-0.53-0.544-0.771-0.835c-1.87-2.257-3.714-4.537-5.617-6.766
				c-0.392-0.46-0.262-0.876-0.206-1.324c0.569-4.525,0.907-9.066,0.922-13.626c0.008-2.456-0.054-4.912-0.085-7.367
				c-0.005-0.432-0.013-0.863-0.022-1.5C377.995,387.101,382.325,391.517,386.794,396.075z"/>
			<path d="M133.054,124.234c1.315,0.471,2.602,0.934,3.89,1.393c1.343,0.478,2.693,0.937,4.029,1.433
				c1.501,0.558,2.733,0.29,3.864-0.911c1.899-2.015,3.983-3.862,5.503-6.211c0.229-0.354,0.464-0.703,0.757-1.146
				c1.49,2.18,2.644,4.369,2.768,6.938c0.08,1.656-0.008,3.32-0.013,4.981c-0.002,0.68-0.311,1.174-0.797,1.643
				c-3.073,2.964-6.735,4.4-10.992,4.208c-1.292-0.058-2.593-0.279-3.852-0.583c-0.567-0.137-1.115-0.591-1.542-1.028
				c-0.897-0.917-1.49-2.043-1.885-3.266c-0.11-0.339-0.207-0.683-0.286-1.031C134.021,128.547,133.549,126.436,133.054,124.234z"/>
			<path d="M288.126,174.857c-1.774-2.536-3.353-5.063-5.209-7.368c-1.829-2.272-3.939-4.319-5.995-6.54
				c0.241-0.063,0.476-0.15,0.719-0.184c4.678-0.658,9.267-1.751,13.858-2.833c0.309-0.073,0.613-0.166,0.925-0.223
				c1.492-0.273,2.059,0.031,2.421,1.527c0.655,2.703,1.063,5.446,1.044,8.24c-0.004,0.592-0.222,1.044-0.565,1.513
				C293.426,171.585,290.817,173.285,288.126,174.857z"/>
			<path d="M296.957,435.201c-0.589,0.349-1.04,0.667-1.532,0.901c-3.3,1.573-5.817,3.928-7.347,7.284
				c-0.131,0.287-0.301,0.557-0.462,0.83c-0.058,0.099-0.142,0.183-0.272,0.347c-0.124-0.186-0.248-0.321-0.315-0.48
				c-1.256-2.952-2.49-5.913-3.767-8.856c-0.318-0.733-0.352-1.382-0.106-2.161c1.608-5.097,3.16-10.211,4.734-15.318
				c0.045-0.145,0.118-0.281,0.246-0.58C291.089,423.208,293.983,429.123,296.957,435.201z"/>
			<path d="M282.471,178.051c-2.883,1.531-5.582,2.844-8.382,3.971c-5.705,2.296-11.581,3.861-17.714,4.422
				c-1.317,0.12-1.327,0.128-1.753-1.153c-0.624-1.877-1.232-3.76-1.883-5.751c0.216-0.033,0.327-0.069,0.437-0.064
				c3.955,0.183,7.834-0.426,11.686-1.199c3.541-0.711,7.037-1.615,10.435-2.859c0.743-0.272,1.486-0.568,2.182-0.94
				c0.505-0.27,0.923-0.231,1.304,0.119C279.974,175.689,281.144,176.805,282.471,178.051z"/>
			<path d="M78.851,318.895c-0.388,5.735-1.018,11.385-1.805,17.178c-0.573-0.217-1.001-0.387-1.433-0.542
				c-1.713-0.617-3.397-1.339-5.148-1.816c-2.383-0.65-4.793-0.465-7.16,0.238c-0.34,0.101-0.686,0.18-1.031,0.264
				c-0.031,0.008-0.071-0.023-0.219-0.077c0.215-0.727,0.424-1.469,0.656-2.205c0.488-1.549,0.966-3.103,1.499-4.637
				c0.119-0.344,0.383-0.731,0.689-0.902c4.538-2.521,9.095-5.008,13.649-7.501C78.577,318.878,78.625,318.893,78.851,318.895z"/>
			<path d="M305.275,389.441c2.578-1.891,5.004-3.67,7.517-5.513c2.358,4.103,4.699,8.176,7.082,12.324
				c-0.409,0.193-0.683,0.323-0.959,0.451c-0.936,0.434-1.61,1.121-2.073,2.045c-0.882,1.762-1.409,3.616-1.518,5.585
				c-0.042,0.752-0.06,1.506-0.126,2.256c-0.036,0.408-0.148,0.809-0.361,1.226C311.342,401.827,308.232,395.7,305.275,389.441z"/>
			<path d="M366.195,431.969c-1.27,6.954-2.693,13.757-3.136,20.717c-0.117,0.024-0.234,0.049-0.35,0.073
				c-0.249-0.271-0.529-0.52-0.742-0.816c-0.901-1.256-1.737-2.56-2.68-3.783c-1.16-1.503-2.315-3.027-3.634-4.384
				c-1.146-1.179-2.518-2.138-3.789-3.193C352.96,439.315,364.467,432.313,366.195,431.969z"/>
			<path d="M143.21,333.726c-8.708,11.556-15.903,23.907-24.463,35.336c0.568-1.127,1.161-2.243,1.7-3.383
				c2.288-4.841,4.541-9.7,6.844-14.534c2.201-4.619,4.47-9.206,6.661-13.83c0.575-1.212,1.427-2.024,2.601-2.639
				C138.592,333.608,140.69,333.165,143.21,333.726z"/>
			<path d="M79.078,253.978c-0.404,4.101-0.808,8.21-1.239,12.587c-0.371-0.493-0.556-0.737-0.738-0.982
				c-1.375-1.855-2.812-3.637-4.993-4.633c-0.302-0.138-0.54-0.451-0.765-0.718c-0.433-0.516-0.82-1.069-1.255-1.583
				c-0.266-0.314-0.528-0.895-1.011-0.595c-0.528,0.327-0.031,0.759,0.143,1.122c0.134,0.279,0.3,0.543,0.525,0.945
				c-0.51-0.051-0.887-0.131-1.26-0.119c-1.064,0.035-2.13,0.077-3.189,0.172c-1.263,0.113-1.654-0.198-1.663-1.465
				c-0.013-1.938-0.014-3.876-0.02-5.806C65.143,252.504,73.315,253.072,79.078,253.978z"/>
			<path d="M153.812,139.238c-4.169-0.765-7.33,1.245-10.255,3.918c-1.276-0.535-2.57-0.42-3.868-0.192
				c-2.109,0.371-4.219,0.744-6.329,1.111c-0.579,0.101-1.247,0.339-1.603-0.335c-0.354-0.671,0.201-1.104,0.62-1.518
				c1.983-1.955,4.39-3.247,6.907-4.353c0.269-0.118,0.616-0.078,0.927-0.075c1.188,0.008,2.379,0.089,3.564,0.038
				c3.674-0.159,6.831-1.578,9.578-3.996c1.739-1.531,3.899-2.084,6.114-2.346c1.272-0.15,2.418,0.397,3.276,1.385
				c0.637,0.733,0.443,1.33-0.5,1.562c-0.846,0.209-1.721,0.308-2.561,0.539c-1.068,0.294-2.124,0.641-3.165,1.022
				c-1.226,0.449-2.076,1.286-2.427,2.58C154.04,138.763,153.942,138.935,153.812,139.238z"/>
			<path d="M369.116,308.966c-2.386,0.446-19.342-0.964-20.944-1.693c1.186-3.386,2.373-6.771,3.6-10.273
				c0.713,0.185,1.457,0.303,2.136,0.58c0.451,0.184,0.94,0.514,1.187,0.917c2.371,3.866,5.969,6.264,9.847,8.332
				c1.012,0.54,2.068,0.997,3.097,1.506C368.374,308.499,368.686,308.711,369.116,308.966z"/>
			<path d="M372.546,407.479c2.152,2.588,4.266,5.131,6.479,7.792c-0.525,0.544-1.022,1.086-1.548,1.599
				c-2.413,2.349-4.146,5.124-4.854,8.416c-0.337,1.565-0.315,3.219-0.345,4.834c-0.022,1.226-0.234,2.348-1.033,3.445
				c-1.144-0.892-2.258-1.759-3.367-2.624C367.882,430.926,372.528,407.57,372.546,407.479z"/>
			<path d="M60.913,319.518c2.991-0.46,4.615-2.514,5.964-4.793c0.736-1.243,1.177-2.66,1.818-4.154
				c3.155,2.289,6.269,4.548,9.514,6.902c-4.556,2.506-9.009,4.956-13.418,7.381C63.502,323.079,62.232,321.333,60.913,319.518z"/>
			<path d="M345.26,312.994c2.386,2.436,4.189,5.363,6.222,8.283c-3.689,1.85-7.336,3.544-11.033,4.988
				c-0.922-1.293-1.79-2.511-2.617-3.672C340.3,319.404,342.762,316.221,345.26,312.994z"/>
			<path d="M270.152,436.34c3.848-0.713,7.419-1.375,11.042-2.046c-0.222,1.867-5.717,18.357-6.537,19.729
				c-0.538-0.04-0.635-0.426-0.593-0.843c0.06-0.59,0.154-1.179,0.281-1.758c0.885-4.043,0.168-7.796-2.025-11.282
				c-0.422-0.671-0.918-1.297-1.322-1.978C270.704,437.665,270.505,437.112,270.152,436.34z"/>
			<path d="M78.608,252.505c-0.464-0.033-0.776-0.034-1.082-0.079c-4.668-0.694-9.372-0.898-14.081-1.008
				c-0.597-0.014-1.016-0.167-1.439-0.615c-0.868-0.919-1.827-1.752-2.743-2.626c-0.276-0.264-0.536-0.545-0.95-0.969
				c3.8,0.687,6.766-0.746,9.567-2.73c0.161-0.114,0.318-0.236,0.481-0.348c0.886-0.606,0.923-0.625,1.706,0.12
				c2.178,2.073,4.339,4.164,6.504,6.251C77.22,251.127,77.857,251.766,78.608,252.505z"/>
			<path d="M240.093,186.461c0.269-4.122,0.037-8.146-0.573-12.213c3.791,4.873,8.324,8.903,13.542,12.262
				C251.579,186.99,242.624,186.95,240.093,186.461z"/>
			<path d="M126.454,64.753c-0.263-0.073-0.488-0.143-0.718-0.198c-0.535-0.127-0.905-0.014-1.085,0.592
				c-0.163,0.548-0.44,1.062-0.755,1.797c-1.366-2.878-3.364-4.963-5.341-7.061c-0.31-0.328-0.358-0.673-0.292-1.088
				c0.303-1.889,0.765-3.674,2.736-4.57c0.307-0.139,0.584-0.549,0.849-0.527c0.447,0.037,0.921,0.251,1.298,0.513
				c0.812,0.565,1.579,1.195,2.341,1.828c0.155,0.129,0.269,0.381,0.291,0.587c0.277,2.638,0.534,5.278,0.793,7.917
				C126.575,64.576,126.536,64.611,126.454,64.753z"/>
			<path d="M282.567,435.976c1.401,3.346,2.801,6.691,4.184,9.993c-0.45,0.684-0.995,0.977-1.637,1.085
				c-2.825,0.475-4.979,2.11-6.981,4.011c-0.315,0.299-0.593,0.635-0.895,0.947c-0.048,0.05-0.132,0.065-0.326,0.155
				c1.798-5.454,3.566-10.817,5.335-16.181C282.353,435.984,282.46,435.98,282.567,435.976z"/>
			<path d="M313.56,383.293c1.642-1.422,3.132-2.711,4.73-4.095c0.335,1.177,1.308,1.613,2.054,2.275
				c0.472,0.419,0.965,0.818,1.402,1.271c0.289,0.3,0.332,0.641,0.091,1.074c-1.732,3.126-2.473,6.418-1.548,9.964
				c0.06,0.229,0.076,0.47,0.099,0.706c0.007,0.072-0.027,0.148-0.096,0.481C318,390.992,315.806,387.187,313.56,383.293z"/>
			<path d="M253.53,178.03c4.608-3.027,18.478-5.796,22.351-4.463C273.651,175.591,257.079,178.9,253.53,178.03z"/>
			<path d="M63.745,325.316c-5.866,3.855-11.643,7.651-17.547,11.532c0.12-0.279,0.148-0.514,0.28-0.625
				c0.786-0.659,1.586-1.302,2.4-1.926c1.286-0.987,2.613-1.922,3.876-2.938c3.125-2.513,5.088-5.813,6.369-9.562
				c0.128-0.374,0.275-0.743,0.438-1.103c0.079-0.174,0.216-0.323,0.442-0.649C61.317,321.852,62.809,323.402,63.745,325.316z"/>
			<path d="M62.993,327.783c-0.207,0.708-0.399,1.42-0.624,2.122c-0.483,1.507-0.997,3.004-1.465,4.516
				c-0.13,0.421-0.347,0.685-0.755,0.832c-0.753,0.271-1.498,0.475-2.317,0.281c-2.041-0.483-4.007-0.131-5.935,0.592
				c-0.778,0.292-1.562,0.57-2.35,0.835c-0.283,0.095-0.586,0.133-0.93,0.094c4.594-3.342,9.243-6.573,14.15-9.415
				C62.843,327.687,62.918,327.735,62.993,327.783z"/>
			<path d="M62.605,252.714c0.015,1.894,0.029,3.627,0.043,5.456c-0.279-0.12-0.478-0.158-0.615-0.271
				c-1.942-1.589-4.245-2.263-6.664-2.637c-1.449-0.224-2.903-0.415-4.354-0.63c-0.301-0.045-0.596-0.13-0.892-0.302
				C54.124,253.042,58.253,252.872,62.605,252.714z"/>
			<path d="M80.035,256.848c0.919,3.784,1.839,7.567,2.81,11.565c-1.475-0.466-2.869-0.087-4.148-0.78
				c0.378-3.63,0.749-7.195,1.12-10.761C79.889,256.864,79.962,256.856,80.035,256.848z"/>
			<path d="M364.871,448.382c0.527-5.441,1.613-10.814,2.685-16.459c1.165,0.925,2.135,1.695,3.141,2.493
				c-1.283,2.251-2.593,4.41-3.765,6.642C365.739,443.332,365.638,445.934,364.871,448.382z"/>
			<path d="M50.392,252.558c2.55-1.13,4.798-2.746,6.711-5.019c1.387,1.274,2.674,2.457,4.066,3.736
				C57.454,251.717,53.923,252.138,50.392,252.558z"/>
			<path d="M71.396,244.057c2.014,0.382,3.942,0.747,6.002,1.138c0.403,1.801,0.831,3.718,1.26,5.635
				c-0.057,0.042-0.113,0.083-0.17,0.125C76.144,248.674,73.8,246.394,71.396,244.057z"/>
			<path d="M147.349,323.994c0.362,1.879,0.723,3.759,1.089,5.657c-0.784,0.451-1.553,0.893-2.494,1.434
				c0.418-2.472,0.807-4.777,1.197-7.081C147.21,324.001,147.279,323.998,147.349,323.994z"/>
			<path d="M97.455,292.291c-1.701-0.729-3.401-1.459-5.102-2.188c-0.004-0.076-0.007-0.153-0.011-0.229
				c0.614-0.177,1.224-0.368,1.845-0.52c0.126-0.031,0.322,0.05,0.428,0.144c0.997,0.879,1.981,1.772,2.969,2.66
				C97.541,292.203,97.498,292.247,97.455,292.291z"/>
		</g>
	</g>
</g>
</svg>
